<?xml version="1.0" encoding="utf-8"?>
<!-- Svg Vector Icons : http://www.onlinewebfonts.com/icon -->
<!DOCTYPE svg PUBLIC "-//W3C//DTD SVG 1.1//EN" "http://www.w3.org/Graphics/SVG/1.1/DTD/svg11.dtd">
<svg version="1.1" xmlns="http://www.w3.org/2000/svg" xmlns:xlink="http://www.w3.org/1999/xlink" x="0px" y="0px" viewBox="0 0 1000 1000" enable-background="new 0 0 1000 1000" xml:space="preserve">
<metadata> Svg Vector Icons : http://www.onlinewebfonts.com/icon </metadata>
<g><g><g id="grid"><g><path d="M346.9,561.3h-245c-50.7,0-91.9,41.1-91.9,91.9v245c0,50.7,41.1,91.9,91.9,91.9h245c50.7,0,91.9-41.1,91.9-91.9v-245C438.8,602.4,397.6,561.3,346.9,561.3z M346.9,867.5c0,16.9-13.7,30.6-30.6,30.6H132.5c-16.9,0-30.6-13.7-30.6-30.6V683.8c0-16.9,13.7-30.6,30.6-30.6h183.8c16.9,0,30.6,13.7,30.6,30.6V867.5z M346.9,10h-245C51.1,10,10,51.1,10,101.9v245c0,50.7,41.1,91.9,91.9,91.9h245c50.7,0,91.9-41.1,91.9-91.9v-245C438.8,51.1,397.6,10,346.9,10z M346.9,316.3c0,16.9-13.7,30.6-30.6,30.6H132.5c-16.9,0-30.6-13.7-30.6-30.6V132.5c0-16.9,13.7-30.6,30.6-30.6h183.8c16.9,0,30.6,13.7,30.6,30.6V316.3z M898.1,10h-245c-50.7,0-91.9,41.1-91.9,91.9v245c0,50.7,41.1,91.9,91.9,91.9h245c50.7,0,91.9-41.1,91.9-91.9v-245C990,51.1,948.9,10,898.1,10z M898.1,316.3c0,16.9-13.7,30.6-30.6,30.6H683.8c-16.9,0-30.6-13.7-30.6-30.6V132.5c0-16.9,13.7-30.6,30.6-30.6h183.8c16.9,0,30.6,13.7,30.6,30.6V316.3z M898.1,561.3h-245c-50.7,0-91.9,41.1-91.9,91.9v245c0,50.7,41.1,91.9,91.9,91.9h245c50.7,0,91.9-41.1,91.9-91.9v-245C990,602.4,948.9,561.3,898.1,561.3z M898.1,867.5c0,16.9-13.7,30.6-30.6,30.6H683.8c-16.9,0-30.6-13.7-30.6-30.6V683.8c0-16.9,13.7-30.6,30.6-30.6h183.8c16.9,0,30.6,13.7,30.6,30.6V867.5z"/></g></g></g><g></g><g></g><g></g><g></g><g></g><g></g><g></g><g></g><g></g><g></g><g></g><g></g><g></g><g></g><g></g></g>
</svg>