<svg id="svg" version="1.1" xmlns="http://www.w3.org/2000/svg" xmlns:xlink="http://www.w3.org/1999/xlink" width="400" height="400" viewBox="0, 0, 400,400"><g id="svgg"><path id="path0" d="M0.000 200.000 L 0.000 400.000 2.140 400.000 L 4.279 400.000 4.559 393.700 C 5.365 375.593,7.552 360.080,9.969 355.324 C 10.622 354.038,11.621 351.279,12.189 349.193 C 14.199 341.807,14.830 340.075,16.145 338.347 C 17.848 336.107,18.173 335.478,19.450 331.937 C 20.030 330.328,20.795 328.558,21.149 328.005 C 22.110 326.504,24.452 323.429,24.810 323.200 C 24.981 323.090,25.705 321.780,26.417 320.290 C 27.238 318.569,28.269 317.138,29.239 316.369 C 30.079 315.703,31.418 314.088,32.213 312.778 C 33.066 311.374,34.381 309.901,35.418 309.187 C 36.386 308.522,37.736 307.165,38.419 306.173 C 39.102 305.180,40.605 303.741,41.760 302.974 C 42.916 302.207,44.409 300.801,45.080 299.849 C 45.751 298.898,47.203 297.507,48.307 296.760 C 49.412 296.012,50.925 294.594,51.670 293.610 C 52.453 292.576,54.008 291.267,55.352 290.512 C 56.631 289.793,58.551 288.419,59.618 287.460 C 60.919 286.290,62.692 285.275,65.004 284.375 C 67.455 283.422,69.152 282.427,70.882 280.929 C 72.503 279.525,73.998 278.625,75.371 278.226 C 77.980 277.467,81.215 275.757,81.905 274.771 C 82.928 273.311,85.880 272.003,90.428 270.994 C 93.857 270.233,96.100 269.431,99.400 267.786 C 102.751 266.114,104.896 265.353,108.400 264.591 C 113.617 263.456,116.373 262.625,118.400 261.577 C 121.168 260.146,125.851 259.239,135.741 258.216 C 143.724 257.391,146.061 256.996,152.400 255.399 C 156.411 254.389,159.343 253.933,163.800 253.629 C 190.665 251.793,210.024 251.795,236.600 253.634 C 241.127 253.948,243.876 254.382,247.800 255.406 C 252.849 256.722,258.459 257.673,264.200 258.184 C 272.803 258.951,279.306 260.237,282.371 261.778 C 284.486 262.841,286.998 263.581,292.600 264.788 C 295.462 265.405,297.852 266.272,301.000 267.834 C 304.194 269.419,306.497 270.249,309.400 270.862 C 314.178 271.872,316.006 272.670,318.391 274.789 C 319.376 275.665,321.176 276.759,322.391 277.220 C 326.533 278.794,327.915 279.548,329.923 281.332 C 331.028 282.313,332.622 283.339,333.466 283.613 C 336.131 284.476,339.474 286.324,341.064 287.812 C 341.909 288.602,343.633 289.779,344.894 290.427 C 346.458 291.231,347.668 292.250,348.694 293.628 C 349.523 294.740,351.053 296.176,352.096 296.819 C 353.139 297.462,354.615 298.855,355.376 299.914 C 356.137 300.972,357.669 302.428,358.780 303.149 C 359.892 303.869,361.346 305.250,362.012 306.218 C 362.678 307.185,364.014 308.522,364.982 309.187 C 366.019 309.901,367.334 311.374,368.187 312.778 C 368.982 314.088,370.325 315.707,371.171 316.377 C 372.018 317.048,373.111 318.452,373.601 319.498 C 374.092 320.544,374.607 321.490,374.747 321.600 C 374.888 321.710,375.722 322.862,376.601 324.160 C 377.481 325.457,378.582 327.082,379.049 327.770 C 379.516 328.458,380.372 330.335,380.952 331.942 C 382.227 335.478,382.552 336.108,384.255 338.347 C 385.571 340.078,386.212 341.835,388.210 349.200 C 388.777 351.290,389.935 354.530,390.783 356.400 C 393.046 361.387,395.066 376.285,395.841 393.700 L 396.121 400.000 398.060 400.000 L 400.000 400.000 400.000 200.000 L 400.000 0.000 200.000 0.000 L 0.000 0.000 0.000 200.000 M210.200 13.595 C 219.099 14.303,221.549 14.770,225.400 16.489 C 227.813 17.567,230.780 18.460,234.400 19.199 C 240.683 20.482,241.990 20.972,244.309 22.918 C 245.249 23.707,246.374 24.465,246.809 24.603 C 247.244 24.741,247.600 25.022,247.600 25.227 C 247.600 25.432,247.793 25.600,248.028 25.600 C 249.203 25.600,254.556 28.235,256.074 29.560 C 257.023 30.390,259.076 31.735,260.635 32.549 C 262.443 33.494,263.892 34.596,264.635 35.592 C 265.276 36.451,266.790 37.787,268.000 38.562 C 269.210 39.337,271.139 40.970,272.287 42.191 C 273.435 43.411,274.828 44.583,275.383 44.793 C 275.937 45.004,276.888 45.941,277.496 46.875 C 278.103 47.809,279.707 49.659,281.061 50.986 C 282.414 52.314,283.836 54.030,284.220 54.800 C 284.604 55.570,285.926 57.198,287.159 58.419 C 288.999 60.240,289.633 61.248,290.696 64.048 C 291.537 66.262,292.691 68.329,293.983 69.940 C 295.078 71.304,296.181 73.181,296.434 74.110 C 297.623 78.474,298.650 81.284,300.269 84.612 C 302.212 88.605,303.228 92.792,304.020 100.076 C 304.290 102.564,304.893 107.930,305.359 112.000 L 306.207 119.400 305.342 127.200 C 304.866 131.490,304.264 136.946,304.003 139.324 C 303.218 146.466,302.197 150.629,300.254 154.595 C 299.279 156.586,297.904 160.072,297.198 162.344 C 296.207 165.534,295.524 166.954,294.194 168.586 C 292.099 171.158,291.516 172.255,290.388 175.745 C 289.672 177.962,289.099 178.862,287.216 180.725 C 285.952 181.976,284.604 183.630,284.220 184.400 C 283.836 185.170,282.414 186.886,281.061 188.214 C 279.707 189.541,278.103 191.391,277.496 192.325 C 276.888 193.259,275.937 194.196,275.383 194.407 C 274.828 194.617,273.435 195.789,272.287 197.009 C 271.139 198.230,269.210 199.863,268.000 200.638 C 266.790 201.413,265.276 202.749,264.635 203.608 C 263.890 204.607,262.447 205.702,260.635 206.646 C 259.076 207.459,257.133 208.718,256.318 209.444 C 254.602 210.974,252.948 211.849,248.871 213.387 C 247.243 214.001,245.165 215.165,244.192 216.007 C 242.133 217.789,240.285 218.452,233.800 219.734 C 230.638 220.360,227.907 221.193,225.800 222.176 C 222.666 223.638,217.606 224.795,214.333 224.798 C 213.517 224.799,212.793 225.022,212.700 225.300 C 212.571 225.686,209.711 225.800,200.200 225.800 C 190.689 225.800,187.829 225.686,187.700 225.300 C 187.607 225.022,186.883 224.799,186.067 224.798 C 183.356 224.796,177.637 223.672,176.112 222.842 C 173.407 221.371,170.575 220.463,165.975 219.595 C 160.368 218.537,157.998 217.653,156.050 215.892 C 155.214 215.137,153.196 214.016,151.565 213.401 C 147.450 211.849,145.801 210.977,144.082 209.444 C 143.267 208.718,141.324 207.459,139.765 206.646 C 137.953 205.702,136.510 204.607,135.765 203.608 C 135.124 202.749,133.610 201.413,132.400 200.638 C 131.190 199.863,129.261 198.230,128.113 197.009 C 126.965 195.789,125.572 194.617,125.017 194.407 C 124.463 194.196,123.512 193.259,122.904 192.325 C 122.297 191.391,120.693 189.541,119.339 188.214 C 117.986 186.886,116.564 185.170,116.180 184.400 C 115.796 183.630,114.448 181.976,113.184 180.725 C 111.301 178.862,110.728 177.962,110.012 175.745 C 108.884 172.255,108.301 171.158,106.206 168.586 C 104.876 166.954,104.193 165.534,103.202 162.344 C 102.496 160.072,101.121 156.586,100.146 154.595 C 98.203 150.629,97.182 146.466,96.397 139.324 C 96.136 136.946,95.534 131.490,95.058 127.200 L 94.193 119.400 95.041 112.000 C 95.507 107.930,96.110 102.564,96.380 100.076 C 97.172 92.792,98.188 88.605,100.131 84.612 C 101.750 81.284,102.777 78.474,103.966 74.110 C 104.219 73.181,105.322 71.304,106.417 69.940 C 107.709 68.329,108.863 66.262,109.704 64.048 C 110.767 61.248,111.401 60.240,113.241 58.419 C 114.474 57.198,115.796 55.570,116.180 54.800 C 116.564 54.030,117.986 52.314,119.339 50.986 C 120.693 49.659,122.297 47.809,122.904 46.875 C 123.512 45.941,124.463 45.004,125.017 44.793 C 125.572 44.583,126.965 43.411,128.113 42.191 C 129.261 40.970,131.190 39.337,132.400 38.562 C 133.610 37.787,135.124 36.451,135.765 35.592 C 136.508 34.596,137.957 33.494,139.765 32.549 C 141.324 31.735,143.377 30.390,144.326 29.560 C 145.844 28.235,151.197 25.600,152.372 25.600 C 152.607 25.600,152.800 25.442,152.800 25.249 C 152.800 25.055,153.319 24.682,153.953 24.419 C 154.587 24.157,155.610 23.415,156.227 22.772 C 157.679 21.257,160.427 20.252,165.994 19.201 C 170.443 18.361,172.716 17.634,176.600 15.805 C 180.941 13.760,198.103 12.632,210.200 13.595 " stroke="none" fill="#f9fafa" fill-rule="evenodd"></path><path id="path1" d="M189.400 13.635 C 182.413 14.199,178.658 14.836,176.600 15.805 C 172.716 17.634,170.443 18.361,165.994 19.201 C 160.427 20.252,157.679 21.257,156.227 22.772 C 155.610 23.415,154.587 24.157,153.953 24.419 C 153.319 24.682,152.800 25.055,152.800 25.249 C 152.800 25.442,152.607 25.600,152.372 25.600 C 151.197 25.600,145.844 28.235,144.326 29.560 C 143.377 30.390,141.324 31.735,139.765 32.549 C 137.957 33.494,136.508 34.596,135.765 35.592 C 135.124 36.451,133.610 37.787,132.400 38.562 C 131.190 39.337,129.261 40.970,128.113 42.191 C 126.965 43.411,125.572 44.583,125.017 44.793 C 124.463 45.004,123.512 45.941,122.904 46.875 C 122.297 47.809,120.693 49.659,119.339 50.986 C 117.986 52.314,116.564 54.030,116.180 54.800 C 115.796 55.570,114.474 57.198,113.241 58.419 C 111.401 60.240,110.767 61.248,109.704 64.048 C 108.863 66.262,107.709 68.329,106.417 69.940 C 105.322 71.304,104.219 73.181,103.966 74.110 C 102.777 78.474,101.750 81.284,100.131 84.612 C 98.188 88.605,97.172 92.792,96.380 100.076 C 96.110 102.564,95.507 107.930,95.041 112.000 L 94.193 119.400 95.058 127.200 C 95.534 131.490,96.136 136.946,96.397 139.324 C 97.182 146.466,98.203 150.629,100.146 154.595 C 101.121 156.586,102.496 160.072,103.202 162.344 C 104.193 165.534,104.876 166.954,106.206 168.586 C 108.301 171.158,108.884 172.255,110.012 175.745 C 110.728 177.962,111.301 178.862,113.184 180.725 C 114.448 181.976,115.796 183.630,116.180 184.400 C 116.564 185.170,117.986 186.886,119.339 188.214 C 120.693 189.541,122.297 191.391,122.904 192.325 C 123.512 193.259,124.463 194.196,125.017 194.407 C 125.572 194.617,126.965 195.789,128.113 197.009 C 129.261 198.230,131.190 199.863,132.400 200.638 C 133.610 201.413,135.124 202.749,135.765 203.608 C 136.510 204.607,137.953 205.702,139.765 206.646 C 141.324 207.459,143.267 208.718,144.082 209.444 C 145.801 210.977,147.450 211.849,151.565 213.401 C 153.196 214.016,155.214 215.137,156.050 215.892 C 157.998 217.653,160.368 218.537,165.975 219.595 C 170.575 220.463,173.407 221.371,176.112 222.842 C 177.637 223.672,183.356 224.796,186.067 224.798 C 186.883 224.799,187.607 225.022,187.700 225.300 C 187.829 225.686,190.689 225.800,200.200 225.800 C 209.711 225.800,212.571 225.686,212.700 225.300 C 212.793 225.022,213.517 224.799,214.333 224.798 C 217.606 224.795,222.666 223.638,225.800 222.176 C 227.907 221.193,230.638 220.360,233.800 219.734 C 240.285 218.452,242.133 217.789,244.192 216.007 C 245.165 215.165,247.243 214.001,248.871 213.387 C 252.948 211.849,254.602 210.974,256.318 209.444 C 257.133 208.718,259.076 207.459,260.635 206.646 C 262.447 205.702,263.890 204.607,264.635 203.608 C 265.276 202.749,266.790 201.413,268.000 200.638 C 269.210 199.863,271.139 198.230,272.287 197.009 C 273.435 195.789,274.828 194.617,275.383 194.407 C 275.937 194.196,276.888 193.259,277.496 192.325 C 278.103 191.391,279.707 189.541,281.061 188.214 C 282.414 186.886,283.836 185.170,284.220 184.400 C 284.604 183.630,285.952 181.976,287.216 180.725 C 289.099 178.862,289.672 177.962,290.388 175.745 C 291.516 172.255,292.099 171.158,294.194 168.586 C 295.524 166.954,296.207 165.534,297.198 162.344 C 297.904 160.072,299.279 156.586,300.254 154.595 C 302.197 150.629,303.218 146.466,304.003 139.324 C 304.264 136.946,304.866 131.490,305.342 127.200 L 306.207 119.400 305.359 112.000 C 304.893 107.930,304.290 102.564,304.020 100.076 C 303.228 92.792,302.212 88.605,300.269 84.612 C 298.650 81.284,297.623 78.474,296.434 74.110 C 296.181 73.181,295.078 71.304,293.983 69.940 C 292.691 68.329,291.537 66.262,290.696 64.048 C 289.633 61.248,288.999 60.240,287.159 58.419 C 285.926 57.198,284.604 55.570,284.220 54.800 C 283.836 54.030,282.414 52.314,281.061 50.986 C 279.707 49.659,278.103 47.809,277.496 46.875 C 276.888 45.941,275.937 45.004,275.383 44.793 C 274.828 44.583,273.435 43.411,272.287 42.191 C 271.139 40.970,269.210 39.337,268.000 38.562 C 266.790 37.787,265.276 36.451,264.635 35.592 C 263.892 34.596,262.443 33.494,260.635 32.549 C 259.076 31.735,257.023 30.390,256.074 29.560 C 254.556 28.235,249.203 25.600,248.028 25.600 C 247.793 25.600,247.600 25.432,247.600 25.227 C 247.600 25.022,247.244 24.741,246.809 24.603 C 246.374 24.465,245.249 23.707,244.309 22.918 C 241.990 20.972,240.683 20.482,234.400 19.199 C 230.780 18.460,227.813 17.567,225.400 16.489 C 219.164 13.705,203.708 12.480,189.400 13.635 M191.200 252.234 C 189.990 252.314,184.680 252.568,179.400 252.797 C 162.086 253.548,158.300 253.913,152.400 255.399 C 146.061 256.996,143.724 257.391,135.741 258.216 C 125.851 259.239,121.168 260.146,118.400 261.577 C 116.373 262.625,113.617 263.456,108.400 264.591 C 104.896 265.353,102.751 266.114,99.400 267.786 C 96.100 269.431,93.857 270.233,90.428 270.994 C 85.880 272.003,82.928 273.311,81.905 274.771 C 81.215 275.757,77.980 277.467,75.371 278.226 C 73.998 278.625,72.503 279.525,70.882 280.929 C 69.152 282.427,67.455 283.422,65.004 284.375 C 62.692 285.275,60.919 286.290,59.618 287.460 C 58.551 288.419,56.631 289.793,55.352 290.512 C 54.008 291.267,52.453 292.576,51.670 293.610 C 50.925 294.594,49.412 296.012,48.307 296.760 C 47.203 297.507,45.751 298.898,45.080 299.849 C 44.409 300.801,42.916 302.207,41.760 302.974 C 40.605 303.741,39.102 305.180,38.419 306.173 C 37.736 307.165,36.386 308.522,35.418 309.187 C 34.381 309.901,33.066 311.374,32.213 312.778 C 31.418 314.088,30.079 315.703,29.239 316.369 C 28.269 317.138,27.238 318.569,26.417 320.290 C 25.705 321.780,24.981 323.090,24.810 323.200 C 24.452 323.429,22.110 326.504,21.149 328.005 C 20.795 328.558,20.030 330.328,19.450 331.937 C 18.173 335.478,17.848 336.107,16.145 338.347 C 14.830 340.075,14.199 341.807,12.189 349.193 C 11.621 351.279,10.622 354.038,9.969 355.324 C 7.552 360.080,5.365 375.593,4.559 393.700 L 4.279 400.000 200.200 400.000 L 396.121 400.000 395.841 393.700 C 395.066 376.285,393.046 361.387,390.783 356.400 C 389.935 354.530,388.777 351.290,388.210 349.200 C 386.212 341.835,385.571 340.078,384.255 338.347 C 382.552 336.108,382.227 335.478,380.952 331.942 C 380.372 330.335,379.516 328.458,379.049 327.770 C 378.582 327.082,377.481 325.457,376.601 324.160 C 375.722 322.862,374.888 321.710,374.747 321.600 C 374.607 321.490,374.092 320.544,373.601 319.498 C 373.111 318.452,372.018 317.048,371.171 316.377 C 370.325 315.707,368.982 314.088,368.187 312.778 C 367.334 311.374,366.019 309.901,364.982 309.187 C 364.014 308.522,362.678 307.185,362.012 306.218 C 361.346 305.250,359.892 303.869,358.780 303.149 C 357.669 302.428,356.137 300.972,355.376 299.914 C 354.615 298.855,353.139 297.462,352.096 296.819 C 351.053 296.176,349.523 294.740,348.694 293.628 C 347.668 292.250,346.458 291.231,344.894 290.427 C 343.633 289.779,341.909 288.602,341.064 287.812 C 339.474 286.324,336.131 284.476,333.466 283.613 C 332.622 283.339,331.028 282.313,329.923 281.332 C 327.915 279.548,326.533 278.794,322.391 277.220 C 321.176 276.759,319.376 275.665,318.391 274.789 C 316.006 272.670,314.178 271.872,309.400 270.862 C 306.497 270.249,304.194 269.419,301.000 267.834 C 297.852 266.272,295.462 265.405,292.600 264.788 C 286.998 263.581,284.486 262.841,282.371 261.778 C 279.306 260.237,272.803 258.951,264.200 258.184 C 258.456 257.673,252.848 256.722,247.800 255.405 C 242.278 253.964,239.071 253.639,222.107 252.805 C 212.925 252.353,194.506 252.013,191.200 252.234 " stroke="none" fill="#2c343c" fill-rule="evenodd"></path></g></svg>